<svg xmlns="http://www.w3.org/2000/svg" xmlns:xlink="http://www.w3.org/1999/xlink" width="500" zoomAndPan="magnify" viewBox="0 0 375 374.999991" height="500" preserveAspectRatio="xMidYMid meet" version="1.0"><defs><g/></defs><g fill="#fdfcf8" fill-opacity="1"><g transform="translate(83.730468, 236.621905)"><g><path d="M 10.589844 -177.261719 C -12.246094 -142.269531 4.972656 -104.148438 37.109375 -76.890625 C 56.078125 -60.316406 87.757812 -30.847656 76.707031 -8.011719 C 68.789062 8.195312 32.414062 7.089844 26.613281 -17.863281 C 24.769531 -25.785156 24.863281 -41.992188 46.871094 -44.660156 C 50.832031 -45.121094 50.003906 -51.105469 46.042969 -50.648438 C 27.535156 -48.070312 21.179688 -32.414062 24.496094 -18.234375 C 30.664062 8.5625 69.617188 12.339844 80.113281 -7.367188 C 93.652344 -32.78125 62.433594 -62.617188 41.347656 -81.957031 C 9.761719 -107.371094 -10.867188 -142.457031 12.0625 -176.25 C 38.308594 -215.109375 101.203125 -218.519531 87.203125 -179.84375 C 83.335938 -169.621094 76.429688 -165.015625 70.261719 -160.042969 C 66.394531 -156.914062 71.183594 -150.925781 75.140625 -154.148438 C 82.785156 -160.410156 89.324219 -168.609375 92.269531 -178.183594 C 105.34375 -222.570312 38.398438 -219.4375 10.589844 -177.261719 Z M 10.589844 -177.261719 "/></g></g></g><g fill="#fdfcf8" fill-opacity="1"><g transform="translate(185.012035, 236.621905)"><g><path d="M 110.132812 -6.90625 C 102.121094 0.277344 91.714844 1.839844 80.851562 -4.421875 C 63.355469 -14.457031 47.882812 -43.003906 32.597656 -56.539062 C 72.929688 -61.511719 101.292969 -90.425781 110.6875 -126.25 C 121.828125 -169.4375 101.753906 -206.085938 62.710938 -205.535156 C 48.898438 -205.257812 33.152344 -200.746094 21.179688 -191.445312 C 21.824219 -195.21875 22.835938 -200.007812 24.402344 -203.507812 C 25.140625 -205.257812 26.152344 -205.71875 27.164062 -206.269531 C 30.847656 -208.113281 29.097656 -213.269531 25.324219 -213.269531 C 21.179688 -212.902344 19.796875 -209.125 19.152344 -204.980469 C 18.507812 -200.5625 18.417969 -193.5625 18.324219 -188.867188 C 1.195312 -173.304688 -3.222656 -139.417969 18.417969 -108.015625 C 18.417969 -107.648438 19.152344 -70.535156 19.246094 -64.460938 C 13.996094 -66.023438 9.117188 -65.839844 4.050781 -64.183594 C 0.828125 -64 -4.421875 -57.460938 7.644531 -56.171875 C 12.246094 -55.710938 17.773438 -55.710938 19.429688 -55.710938 C 20.074219 -4.695312 18.507812 -1.382812 18.417969 1.289062 C 18.140625 6.355469 25.785156 6.722656 26.058594 1.65625 C 26.519531 -8.289062 24.769531 -34.714844 23.574219 -55.804688 C 24.308594 -55.804688 25.046875 -55.894531 25.875 -55.894531 C 44.199219 -45.214844 59.210938 -15.929688 79.929688 -2.855469 C 95.125 6.722656 112.25 1.65625 115.289062 -1.105469 C 119.15625 -4.511719 114 -10.3125 110.132812 -6.90625 Z M 18.324219 -186.289062 C 17.957031 -165.660156 17.402344 -160.871094 18.234375 -116.394531 C 1.75 -138.128906 0.738281 -168.054688 18.324219 -186.289062 Z M 31.953125 -103.042969 C 27.808594 -105.988281 24.035156 -109.488281 20.628906 -113.449219 C 19.984375 -131.3125 18.507812 -171 20.8125 -188.683594 C 30.757812 -197.890625 48.527344 -203.324219 62.527344 -203.414062 C 100.097656 -203.785156 119.433594 -168.515625 107.003906 -126.0625 C 89.96875 -67.773438 30.941406 -59.304688 23.113281 -62.984375 C 22.5625 -72.65625 21.363281 -95.585938 20.996094 -104.425781 C 22.101562 -103.042969 26.335938 -97.519531 27.441406 -96.78125 C 31.585938 -93.835938 36.097656 -100.097656 31.953125 -103.042969 Z M 31.953125 -103.042969 "/></g></g></g><g fill="#fdfcf8" fill-opacity="1"><g transform="translate(10.916312, 289.709103)"><g><path d="M 1.90625 -24.164062 C 1.90625 -13.734375 22.382812 -16.4375 22.382812 -6.867188 C 22.382812 -3.339844 18.726562 0.0625 14.085938 0.0625 C 6.515625 0.0625 2.351562 -7.503906 2.351562 -7.503906 L 2.035156 -7.503906 L 2.035156 -3.242188 C 4.386719 -1.496094 8.105469 0.636719 12.304688 0.636719 C 19.648438 0.636719 24.226562 -3.75 24.226562 -8.171875 C 24.226562 -19.296875 4.132812 -16.214844 4.132812 -24.925781 C 4.132812 -28.453125 7.375 -32.046875 13.289062 -32.046875 C 20.09375 -32.046875 22.03125 -26.707031 22.03125 -26.707031 L 22.351562 -26.707031 L 22.351562 -30.964844 C 19.902344 -31.792969 17.199219 -32.429688 13.289062 -32.429688 C 5.945312 -32.429688 1.90625 -28.582031 1.90625 -24.164062 Z M 1.90625 -24.164062 "/></g></g></g><g fill="#fdfcf8" fill-opacity="1"><g transform="translate(48.677371, 289.709103)"><g><path d="M 0.953125 -5.5625 C 0.953125 -2.257812 3.050781 0.636719 6.738281 0.636719 C 13.066406 0.636719 16.785156 -4.960938 16.785156 -12.683594 C 16.785156 -14.210938 16.722656 -15.484375 16.59375 -16.5 L 20.539062 -6.105469 C 21.746094 -2.894531 21.90625 -0.316406 17.421875 -0.316406 L 17.421875 0 L 27.851562 0 L 27.851562 -0.316406 C 25.910156 -0.316406 24.894531 -2.066406 23.496094 -5.5625 L 13.320312 -32.429688 L 13.003906 -32.429688 C 11 -27.152344 9.824219 -24.003906 7.882812 -18.882812 C 7.566406 -18.058594 7.726562 -17.199219 8.617188 -17.199219 C 10.429688 -17.199219 11.382812 -20.539062 12.90625 -20.539062 C 13.320312 -20.539062 13.671875 -20.285156 13.671875 -19.679688 C 13.671875 -16.375 0.953125 -13.382812 0.953125 -5.5625 Z M 3.65625 -6.167969 C 3.65625 -14.019531 14.019531 -15.355469 14.019531 -19.617188 C 14.019531 -20.441406 13.574219 -20.855469 12.972656 -20.855469 C 11.285156 -20.855469 10.109375 -17.519531 8.648438 -17.519531 C 8.140625 -17.519531 7.882812 -17.898438 8.296875 -19.011719 L 11.953125 -28.742188 L 15.800781 -18.597656 C 16.375 -16.722656 16.46875 -14.972656 16.46875 -12.621094 C 16.46875 -7.40625 13.957031 -0.890625 8.648438 -0.890625 C 5.53125 -0.890625 3.65625 -3.179688 3.65625 -6.167969 Z M 3.65625 -6.167969 "/></g></g></g><g fill="#fdfcf8" fill-opacity="1"><g transform="translate(88.154621, 289.709103)"><g><path d="M 0.953125 -31.472656 C 3.6875 -31.472656 3.878906 -29.21875 3.878906 -22.953125 L 3.878906 -8.839844 C 3.878906 -2.417969 8.773438 0.636719 14.625 0.636719 C 20.472656 0.636719 25.242188 -2.480469 25.242188 -8.839844 L 25.242188 -22.953125 C 25.242188 -29.21875 25.433594 -31.472656 28.167969 -31.472656 L 28.167969 -31.792969 L 19.585938 -31.792969 L 19.585938 -31.472656 C 22.316406 -31.472656 22.507812 -29.21875 22.507812 -22.953125 L 22.507812 -8.839844 C 22.507812 -2.703125 19.140625 0.316406 14.625 0.316406 C 10.109375 0.316406 6.613281 -2.671875 6.613281 -8.839844 L 6.613281 -22.953125 C 6.613281 -29.21875 6.804688 -31.472656 9.539062 -31.472656 L 9.539062 -31.792969 L 0.953125 -31.792969 Z M 0.953125 -31.472656 "/></g></g></g><g fill="#fdfcf8" fill-opacity="1"><g transform="translate(128.903128, 289.709103)"><g><path d="M 0.953125 -31.792969 L 0.953125 -31.472656 C 3.6875 -31.472656 3.878906 -29.21875 3.878906 -22.953125 L 3.878906 -8.839844 C 3.878906 -2.574219 3.6875 -0.316406 0.953125 -0.316406 L 0.953125 0 L 9.539062 0 L 9.539062 -0.316406 C 6.804688 -0.316406 4.195312 -2.605469 4.195312 -11.859375 L 4.195312 -15.894531 L 4.226562 -29.535156 C 9.0625 -19.171875 11.921875 -13.003906 16.914062 -2.320312 L 17.199219 -2.320312 C 21.109375 -12.8125 24.320312 -21.554688 27.753906 -30.742188 L 27.753906 -8.839844 C 27.753906 -2.574219 27.5625 -0.316406 24.828125 -0.316406 L 24.828125 0 L 33.414062 0 L 33.414062 -0.316406 C 30.679688 -0.316406 30.488281 -2.574219 30.488281 -8.839844 L 30.488281 -22.953125 C 30.488281 -29.21875 30.679688 -31.472656 33.414062 -31.472656 L 33.414062 -31.792969 L 27.820312 -31.792969 L 18.28125 -6.167969 L 6.074219 -31.792969 Z M 0.953125 -31.792969 "/></g></g></g><g fill="#fdfcf8" fill-opacity="1"><g transform="translate(174.895545, 289.709103)"><g><path d="M 0 -31.472656 C 2.417969 -31.472656 3.179688 -29.089844 6.074219 -23.558594 C 8.042969 -19.871094 10.554688 -15.546875 11.636719 -13.449219 L 11.636719 -8.839844 C 11.636719 -2.574219 11.445312 -0.316406 8.710938 -0.316406 L 8.710938 0 L 17.296875 0 L 17.296875 -0.316406 C 14.5625 -0.316406 14.371094 -2.574219 14.371094 -8.839844 L 14.371094 -13.449219 C 15.449219 -15.546875 17.960938 -19.871094 19.933594 -23.558594 C 22.828125 -29.089844 23.589844 -31.472656 26.007812 -31.472656 L 26.007812 -31.792969 L 19.203125 -31.792969 L 19.203125 -31.472656 L 20.027344 -31.472656 C 20.917969 -31.472656 21.808594 -31.15625 21.808594 -30.011719 C 21.808594 -27.914062 16.46875 -18.28125 14.273438 -14.117188 C 12.304688 -17.960938 6.421875 -27.628906 6.421875 -29.789062 C 6.421875 -31.0625 7.25 -31.472656 8.140625 -31.472656 L 8.839844 -31.472656 L 8.839844 -31.792969 L 0 -31.792969 Z M 0 -31.472656 "/></g></g></g><g fill="#fdfcf8" fill-opacity="1"><g transform="translate(212.529473, 289.709103)"><g><path d="M 0.953125 -5.5625 C 0.953125 -2.257812 3.050781 0.636719 6.738281 0.636719 C 13.066406 0.636719 16.785156 -4.960938 16.785156 -12.683594 C 16.785156 -14.210938 16.722656 -15.484375 16.59375 -16.5 L 20.539062 -6.105469 C 21.746094 -2.894531 21.90625 -0.316406 17.421875 -0.316406 L 17.421875 0 L 27.851562 0 L 27.851562 -0.316406 C 25.910156 -0.316406 24.894531 -2.066406 23.496094 -5.5625 L 13.320312 -32.429688 L 13.003906 -32.429688 C 11 -27.152344 9.824219 -24.003906 7.882812 -18.882812 C 7.566406 -18.058594 7.726562 -17.199219 8.617188 -17.199219 C 10.429688 -17.199219 11.382812 -20.539062 12.90625 -20.539062 C 13.320312 -20.539062 13.671875 -20.285156 13.671875 -19.679688 C 13.671875 -16.375 0.953125 -13.382812 0.953125 -5.5625 Z M 3.65625 -6.167969 C 3.65625 -14.019531 14.019531 -15.355469 14.019531 -19.617188 C 14.019531 -20.441406 13.574219 -20.855469 12.972656 -20.855469 C 11.285156 -20.855469 10.109375 -17.519531 8.648438 -17.519531 C 8.140625 -17.519531 7.882812 -17.898438 8.296875 -19.011719 L 11.953125 -28.742188 L 15.800781 -18.597656 C 16.375 -16.722656 16.46875 -14.972656 16.46875 -12.621094 C 16.46875 -7.40625 13.957031 -0.890625 8.648438 -0.890625 C 5.53125 -0.890625 3.65625 -3.179688 3.65625 -6.167969 Z M 3.65625 -6.167969 "/></g></g></g><g fill="#fdfcf8" fill-opacity="1"><g transform="translate(252.006735, 289.709103)"><g/></g></g><g fill="#fdfcf8" fill-opacity="1"><g transform="translate(274.767018, 289.709103)"><g><path d="M 0.953125 0 L 9.507812 0 L 9.507812 -0.316406 C 6.773438 -0.316406 6.582031 -2.574219 6.582031 -8.839844 L 6.582031 -30.964844 C 8.519531 -31.664062 10.046875 -31.984375 12.398438 -31.984375 C 18.3125 -31.984375 22.03125 -28.742188 22.03125 -23.460938 C 22.03125 -19.648438 19.457031 -15.738281 15.484375 -15.738281 C 12.527344 -15.738281 11.0625 -17.550781 9.1875 -17.550781 C 8.617188 -17.550781 8.074219 -17.230469 8.074219 -16.46875 C 8.074219 -14.304688 11.445312 -14.179688 14.527344 -9.539062 C 19.550781 -2.003906 20.441406 0 21.90625 0 L 26.769531 0 L 26.769531 -0.316406 C 23.144531 -0.316406 20.1875 -5.976562 17.675781 -9.886719 C 15.101562 -13.894531 8.394531 -14.339844 8.394531 -16.40625 C 8.394531 -17.136719 8.933594 -17.230469 9.316406 -17.230469 C 10.652344 -17.230469 12.683594 -15.195312 15.671875 -15.195312 C 21.207031 -15.195312 24.765625 -19.140625 24.765625 -23.496094 C 24.765625 -28.675781 20.984375 -32.429688 14.210938 -32.429688 C 10.523438 -32.429688 8.265625 -31.792969 4.769531 -31.792969 L 0.953125 -31.792969 L 0.953125 -31.472656 C 3.6875 -31.472656 3.878906 -29.21875 3.878906 -22.953125 L 3.878906 -8.839844 C 3.878906 -2.574219 3.6875 -0.316406 0.953125 -0.316406 Z M 0.953125 0 "/></g></g></g><g fill="#fdfcf8" fill-opacity="1"><g transform="translate(314.117159, 289.709103)"><g><path d="M 0.953125 -5.5625 C 0.953125 -2.257812 3.050781 0.636719 6.738281 0.636719 C 13.066406 0.636719 16.785156 -4.960938 16.785156 -12.683594 C 16.785156 -14.210938 16.722656 -15.484375 16.59375 -16.5 L 20.539062 -6.105469 C 21.746094 -2.894531 21.90625 -0.316406 17.421875 -0.316406 L 17.421875 0 L 27.851562 0 L 27.851562 -0.316406 C 25.910156 -0.316406 24.894531 -2.066406 23.496094 -5.5625 L 13.320312 -32.429688 L 13.003906 -32.429688 C 11 -27.152344 9.824219 -24.003906 7.882812 -18.882812 C 7.566406 -18.058594 7.726562 -17.199219 8.617188 -17.199219 C 10.429688 -17.199219 11.382812 -20.539062 12.90625 -20.539062 C 13.320312 -20.539062 13.671875 -20.285156 13.671875 -19.679688 C 13.671875 -16.375 0.953125 -13.382812 0.953125 -5.5625 Z M 3.65625 -6.167969 C 3.65625 -14.019531 14.019531 -15.355469 14.019531 -19.617188 C 14.019531 -20.441406 13.574219 -20.855469 12.972656 -20.855469 C 11.285156 -20.855469 10.109375 -17.519531 8.648438 -17.519531 C 8.140625 -17.519531 7.882812 -17.898438 8.296875 -19.011719 L 11.953125 -28.742188 L 15.800781 -18.597656 C 16.375 -16.722656 16.46875 -14.972656 16.46875 -12.621094 C 16.46875 -7.40625 13.957031 -0.890625 8.648438 -0.890625 C 5.53125 -0.890625 3.65625 -3.179688 3.65625 -6.167969 Z M 3.65625 -6.167969 "/></g></g></g><g fill="#fdfcf8" fill-opacity="1"><g transform="translate(353.594421, 289.709103)"><g><path d="M 0.953125 -31.472656 C 3.6875 -31.472656 3.878906 -29.21875 3.878906 -22.953125 L 3.878906 -8.839844 C 3.878906 -2.574219 3.6875 -0.316406 0.953125 -0.316406 L 0.953125 0 L 9.539062 0 L 9.539062 -0.316406 C 6.804688 -0.316406 6.613281 -2.574219 6.613281 -8.839844 L 6.613281 -22.953125 C 6.613281 -29.21875 6.804688 -31.472656 9.539062 -31.472656 L 9.539062 -31.792969 L 0.953125 -31.792969 Z M 0.953125 -31.472656 "/></g></g></g></svg>